<svg width="58" height="58" viewBox="0 0 58 58" fill="none" xmlns="http://www.w3.org/2000/svg">
<path d="M19.9375 3.68164H30.3594C30.4645 3.68164 30.5653 3.7235 30.6396 3.79785C30.714 3.87221 30.7559 3.97297 30.7559 4.07812V19.9375C30.7559 21.3946 31.3349 22.7919 32.3652 23.8223C33.3956 24.8526 34.7929 25.4316 36.25 25.4316H52.1094C52.2145 25.4316 52.3153 25.4735 52.3896 25.5479C52.464 25.6222 52.5059 25.723 52.5059 25.8281V47.125C52.5059 49.0328 51.7484 50.8629 50.3994 52.2119C49.0504 53.5609 47.2203 54.3184 45.3125 54.3184H19.9375C18.0297 54.3184 16.1996 53.5609 14.8506 52.2119C13.5016 50.8629 12.7441 49.0328 12.7441 47.125V10.875C12.7441 8.9672 13.5016 7.1371 14.8506 5.78809C16.1996 4.43907 18.0297 3.68164 19.9375 3.68164Z" fill="#5929F3" stroke="#5929F3" stroke-width="0.113281"/>
<path d="M34.6973 5.06445C34.7301 5.07097 34.7605 5.08775 34.7842 5.11133V5.11035L51.0742 21.4014C51.0978 21.4251 51.1146 21.4555 51.1211 21.4883C51.1276 21.521 51.124 21.5551 51.1113 21.5859C51.0986 21.6168 51.0765 21.6434 51.0488 21.6621C51.0211 21.6807 50.9885 21.6912 50.9551 21.6914H36.25C35.7843 21.6914 35.3381 21.506 35.0088 21.1768C34.6795 20.8475 34.4941 20.4012 34.4941 19.9355V5.23047L34.502 5.18164C34.5068 5.16581 34.5141 5.15061 34.5234 5.13672C34.5421 5.109 34.5687 5.08699 34.5996 5.07422C34.6304 5.06158 34.6646 5.05799 34.6973 5.06445Z" fill="#5929F3" stroke="#5929F3" stroke-width="0.113281"/>
<path d="M16.6926 23.1875C18.8395 23.1868 20.9252 23.8964 22.6183 25.2037C24.3115 26.511 25.5151 28.3409 26.038 30.403C27.1066 29.844 28.2959 29.5494 29.5045 29.5442C30.713 29.539 31.9048 29.8234 32.9783 30.3732C34.0518 30.9229 34.9751 31.7217 35.6693 32.7013C36.3636 33.681 36.8082 34.8124 36.9652 35.9991C38.2748 36.2456 39.4444 36.9674 40.2448 38.0231C41.0453 39.0787 41.419 40.3922 41.2929 41.7065C41.1668 43.0207 40.5499 44.241 39.5629 45.1284C38.576 46.0158 37.2901 46.5065 35.957 46.5044H10.2711C8.56843 46.5057 6.9161 45.9326 5.58634 44.8796C4.25657 43.8266 3.32869 42.3564 2.95555 40.7112C2.58242 39.0661 2.78631 37.3442 3.53362 35.8291C4.28092 34.3141 5.52707 33.0963 7.06676 32.3765C7.15818 29.9089 8.21235 27.5725 10.0075 25.8588C11.8027 24.145 14.1991 23.1875 16.6926 23.1875Z" fill="white" stroke="#5929F3" stroke-width="2.71875"/>
<path d="M16.0244 37.0498C16.1737 37.0772 16.3273 37.0928 16.4844 37.0928C16.6349 37.0928 16.7823 37.0769 16.9258 37.0518L17.7148 40.2578H15.2412L16.0244 37.0498ZM16.6289 35.8477L16.668 36.0049C16.6079 36.0124 16.5466 36.0186 16.4844 36.0186C16.4149 36.0185 16.347 36.0113 16.2803 36.002L16.3193 35.8477H16.6289ZM16.4844 33.1621C17.2887 33.1621 17.9316 33.807 17.9316 34.5908C17.9316 34.9135 17.8211 35.2111 17.6367 35.4512C17.5352 35.053 17.1781 34.7735 16.7666 34.7734H16.1816C15.7767 34.7734 15.4245 35.0439 15.3164 35.4316C15.1413 35.1951 15.0372 34.9044 15.0371 34.5908C15.0371 33.8071 15.6802 33.1623 16.4844 33.1621Z" fill="#3C3C3C" stroke="#5929F3" stroke-width="1.07467"/>
</svg>
